<svg xmlns="http://www.w3.org/2000/svg" viewBox="0 0 312 46" width="312" height="46" role="img" aria-label="Introducing Daisy">
<g fill="#4A235A"><path d="M8.448 30.756Q8.448 32.032000000000004 8.712 32.69200000000001Q8.975999999999999 33.352000000000004 9.834 33.572Q10.692 33.792 12.363999999999999 33.792Q12.452 33.792 12.452 34.056Q12.452 34.32 12.363999999999999 34.32Q11.308 34.32 10.032 34.275999999999996Q8.756 34.232 7.215999999999999 34.232Q5.763999999999999 34.232 4.465999999999999 34.275999999999996Q3.1679999999999997 34.32 2.112 34.32Q1.98 34.32 1.98 34.056Q1.98 33.792 2.112 33.792Q3.784 33.792 4.6419999999999995 33.572Q5.5 33.352000000000004 5.786 32.69200000000001Q6.072 32.032000000000004 6.072 30.756V10.384Q6.072 9.108 5.786 8.47Q5.5 7.832000000000001 4.6419999999999995 7.590000000000002Q3.784 7.3480000000000025 2.112 7.3480000000000025Q1.98 7.3480000000000025 1.98 7.084000000000001Q1.98 6.82 2.112 6.82Q3.1679999999999997 6.82 4.465999999999999 6.886000000000001Q5.763999999999999 6.952000000000002 7.215999999999999 6.952000000000002Q8.756 6.952000000000002 10.053999999999998 6.886000000000001Q11.351999999999999 6.82 12.363999999999999 6.82Q12.452 6.82 12.452 7.084000000000001Q12.452 7.3480000000000025 12.363999999999999 7.3480000000000025Q10.692 7.3480000000000025 9.856 7.612000000000002Q9.02 7.876000000000001 8.734 8.536000000000001Q8.448 9.196000000000002 8.448 10.472000000000001Z"/><path d="M28.38 34.32Q28.247999999999998 34.32 28.247999999999998 34.056Q28.247999999999998 33.792 28.38 33.792Q30.183999999999997 33.792 30.711999999999996 33.22Q31.24 32.648 31.24 30.756V23.408Q31.24 20.724 30.228 19.492Q29.216 18.26 27.06 18.26Q25.387999999999998 18.26 23.65 19.36Q21.912 20.46 20.636 22.396L20.46 21.868000000000002Q22.528 19.14 24.419999999999998 17.952Q26.311999999999998 16.764000000000003 28.247999999999998 16.764000000000003Q30.668 16.764000000000003 31.988 18.062Q33.308 19.36 33.308 22.088V30.756Q33.308 32.648 33.81399999999999 33.22Q34.31999999999999 33.792 36.168 33.792Q36.3 33.792 36.3 34.056Q36.3 34.32 36.168 34.32Q35.42 34.32 34.408 34.275999999999996Q33.396 34.232 32.296 34.232Q31.195999999999998 34.232 30.162 34.275999999999996Q29.128 34.32 28.38 34.32ZM16.544 34.32Q16.412 34.32 16.412 34.056Q16.412 33.792 16.544 33.792Q18.348 33.792 18.875999999999998 33.22Q19.404 32.648 19.404 30.756V21.956000000000003Q19.404 20.46 19.052 19.778000000000002Q18.7 19.096000000000004 17.82 19.096000000000004Q17.38 19.096000000000004 16.764 19.272000000000002Q16.148 19.448 15.356 19.756Q15.18 19.8 15.07 19.58Q14.959999999999999 19.36 15.136 19.272000000000002L20.02 16.984Q20.108 16.94 20.24 16.94Q20.548 16.94 21.009999999999998 17.842Q21.472 18.744 21.472 20.46V30.756Q21.472 32.648 21.978 33.22Q22.483999999999998 33.792 24.332 33.792Q24.464 33.792 24.464 34.056Q24.464 34.32 24.332 34.32Q23.584 34.32 22.572 34.275999999999996Q21.56 34.232 20.46 34.232Q19.36 34.232 18.326 34.275999999999996Q17.291999999999998 34.32 16.544 34.32Z"/><path d="M45.495999999999995 34.848Q44.44 34.848 43.494 34.518Q42.548 34.188 41.976 33.418000000000006Q41.403999999999996 32.648 41.403999999999996 31.328V20.856Q41.403999999999996 19.756 41.272 19.25Q41.14 18.744 40.656 18.59Q40.172 18.436 39.116 18.436Q38.984 18.436 38.984 18.172Q38.984 17.908 39.116 17.908Q40.788 17.908 41.822 16.984Q42.856 16.060000000000002 42.856 14.652000000000001Q42.856 14.520000000000003 43.186 14.520000000000003Q43.516 14.520000000000003 43.516 14.652000000000001V29.832Q43.516 31.68 44.418 32.582Q45.32 33.484 47.08 33.484Q48.268 33.484 49.17 33.11Q50.072 32.736 50.644 32.296Q50.82 32.208 50.952 32.406Q51.084 32.604 50.908 32.736Q49.28 33.88 48.048 34.364000000000004Q46.816 34.848 45.495999999999995 34.848ZM49.588 19.448Q47.872 19.008000000000003 46.31 18.898000000000003Q44.748 18.788000000000004 42.988 18.788000000000004V17.864Q44.704 17.864 46.31 17.732Q47.916 17.6 49.72 17.424Q49.852 17.424 49.94 17.71Q50.028 17.996000000000002 50.028 18.436Q50.028 18.744 49.896 19.118000000000002Q49.763999999999996 19.492 49.588 19.448Z"/><path d="M58.211999999999996 22.396 58.035999999999994 21.956000000000003Q59.663999999999994 19.932000000000002 60.69799999999999 18.854Q61.732 17.776 62.48 17.358Q63.227999999999994 16.94 63.931999999999995 16.94Q64.856 16.94 65.73599999999999 17.424Q66.616 17.908 66.616 18.612000000000002Q66.616 19.052 66.286 19.404Q65.95599999999999 19.756 65.34 19.756Q64.812 19.756 64.43799999999999 19.448Q64.064 19.14 63.623999999999995 18.854Q63.184 18.568 62.43599999999999 18.568Q62.03999999999999 18.568 61.577999999999996 18.810000000000002Q61.116 19.052 60.346 19.866Q59.57599999999999 20.68 58.211999999999996 22.396ZM54.12 34.32Q53.988 34.32 53.988 34.056Q53.988 33.792 54.12 33.792Q55.924 33.792 56.452 33.22Q56.98 32.648 56.98 30.756V21.956000000000003Q56.98 20.46 56.628 19.778000000000002Q56.275999999999996 19.096000000000004 55.395999999999994 19.096000000000004Q54.955999999999996 19.096000000000004 54.339999999999996 19.272000000000002Q53.724 19.448 52.931999999999995 19.756Q52.75599999999999 19.8 52.645999999999994 19.58Q52.535999999999994 19.36 52.711999999999996 19.272000000000002L57.596 16.984Q57.684 16.94 57.815999999999995 16.94Q58.123999999999995 16.94 58.586 17.842Q59.047999999999995 18.744 59.047999999999995 20.46V30.756Q59.047999999999995 32.032000000000004 59.355999999999995 32.69200000000001Q59.663999999999994 33.352000000000004 60.61 33.572Q61.556 33.792 63.44799999999999 33.792Q63.58 33.792 63.58 34.056Q63.58 34.32 63.44799999999999 34.32Q62.391999999999996 34.32 60.983999999999995 34.275999999999996Q59.57599999999999 34.232 58.035999999999994 34.232Q56.93599999999999 34.232 55.901999999999994 34.275999999999996Q54.867999999999995 34.32 54.12 34.32Z"/><path d="M78.056 34.892Q75.46 34.892 73.54599999999999 33.616Q71.63199999999999 32.34 70.59799999999998 30.206000000000003Q69.564 28.072000000000003 69.564 25.608Q69.564 23.32 70.39999999999999 21.648Q71.23599999999999 19.976 72.62199999999999 18.898Q74.008 17.82 75.636 17.292Q77.264 16.764000000000003 78.84799999999998 16.764000000000003Q81.488 16.764000000000003 83.38 18.084000000000003Q85.27199999999999 19.404000000000003 86.28399999999999 21.472Q87.29599999999999 23.54 87.29599999999999 25.828000000000003Q87.29599999999999 28.644000000000002 86.02 30.668Q84.744 32.692 82.654 33.792Q80.564 34.892 78.056 34.892ZM79.288 34.1Q81.752 34.1 83.24799999999999 32.45Q84.744 30.8 84.744 26.972Q84.744 24.288 83.82 22.176000000000002Q82.89599999999999 20.064 81.24599999999998 18.832Q79.59599999999999 17.6 77.39599999999999 17.6Q74.88799999999999 17.6 73.47999999999999 19.338Q72.07199999999999 21.076 72.07199999999999 24.332Q72.07199999999999 26.928 72.97399999999999 29.172Q73.87599999999999 31.416 75.50399999999999 32.758Q77.13199999999999 34.1 79.288 34.1Z"/><path d="M97.416 34.892Q95.612 34.892 94.02799999999999 33.836Q92.44399999999999 32.78 91.49799999999999 30.91Q90.55199999999999 29.04 90.55199999999999 26.532Q90.55199999999999 24.068 91.49799999999999 22.242Q92.44399999999999 20.416 93.94 19.206000000000003Q95.43599999999999 17.996000000000002 97.196 17.380000000000003Q98.95599999999999 16.764000000000003 100.58399999999999 16.764000000000003Q102.124 16.764000000000003 103.466 17.314Q104.80799999999999 17.864 105.952 18.876L105.55599999999998 21.692Q104.45599999999999 20.020000000000003 103.02599999999998 18.810000000000002Q101.59599999999999 17.6 99.264 17.6Q96.448 17.6 94.71 19.602Q92.972 21.604 92.972 25.256Q92.972 27.72 93.764 29.567999999999998Q94.556 31.416 95.91999999999999 32.428Q97.28399999999999 33.44 98.95599999999999 33.44Q100.97999999999999 33.44 102.564 32.296Q104.148 31.152 105.55599999999998 29.568L105.90799999999999 29.876Q104.984 30.932000000000002 103.752 32.098Q102.52 33.264 100.958 34.078Q99.39599999999999 34.892 97.416 34.892ZM107.05199999999999 2.7280000000000015V29.568Q107.05199999999999 31.152 107.42599999999999 31.878Q107.79999999999998 32.604 108.72399999999999 32.604Q109.16399999999999 32.604 109.80199999999999 32.494Q110.44 32.384 111.14399999999999 31.944Q111.36399999999999 31.856 111.47399999999999 32.098Q111.58399999999999 32.34 111.36399999999999 32.428L106.832 34.584Q106.65599999999999 34.672 106.47999999999999 34.672Q105.90799999999999 34.672 105.446 33.682Q104.984 32.692 104.984 30.756V7.964000000000002Q104.984 6.380000000000003 104.67599999999999 5.654000000000002Q104.368 4.928000000000001 103.48799999999999 4.928000000000001Q103.09199999999998 4.928000000000001 102.60799999999999 5.104000000000001Q102.124 5.280000000000001 101.37599999999999 5.588000000000001Q101.19999999999999 5.676000000000002 101.08999999999999 5.412000000000003Q100.97999999999999 5.148000000000003 101.15599999999999 5.104000000000003L106.52399999999999 2.464000000000002Q106.612 2.4200000000000017 106.744 2.4200000000000017Q106.832 2.4200000000000017 106.942 2.5080000000000027Q107.05199999999999 2.5960000000000036 107.05199999999999 2.7280000000000015Z"/><path d="M119.416 34.628Q117.304 34.628 116.072 33.286Q114.83999999999999 31.944 114.83999999999999 29.26V22.44Q114.83999999999999 20.636000000000003 114.576 19.866000000000003Q114.312 19.096000000000004 113.564 19.096000000000004Q112.904 19.096000000000004 111.97999999999999 19.536Q111.804 19.624000000000002 111.69399999999999 19.360000000000003Q111.58399999999999 19.096000000000004 111.75999999999999 19.052L116.38 16.984Q116.46799999999999 16.94 116.556 16.94Q116.64399999999999 16.94 116.776 17.028Q116.908 17.116 116.908 17.248V27.94Q116.908 30.624000000000002 117.832 31.878Q118.756 33.132 120.604 33.132Q122.40799999999999 33.132 124.21199999999999 32.054Q126.01599999999999 30.976 127.38 29.084L127.6 29.568Q125.44399999999999 32.296 123.464 33.462Q121.484 34.628 119.416 34.628ZM128.612 17.248V29.7Q128.612 31.196 128.986 31.878Q129.35999999999999 32.56 130.24 32.56Q130.724 32.56 131.296 32.384Q131.868 32.208 132.704 31.9Q132.92399999999998 31.812 133.012 32.054Q133.1 32.296 132.92399999999998 32.384L127.996 34.672Q127.90799999999999 34.716 127.82 34.716Q127.512 34.716 127.05 33.814Q126.588 32.912 126.588 31.196V22.44Q126.588 20.636000000000003 126.30199999999999 19.866000000000003Q126.01599999999999 19.096000000000004 125.268 19.096000000000004Q124.60799999999999 19.096000000000004 123.684 19.536Q123.508 19.624000000000002 123.41999999999999 19.360000000000003Q123.332 19.096000000000004 123.508 19.052L128.128 16.984Q128.216 16.94 128.26 16.94Q128.34799999999998 16.94 128.48 17.028Q128.612 17.116 128.612 17.248Z"/><path d="M143.176 34.848Q140.18399999999997 34.848 138.31399999999996 33.55Q136.444 32.252 135.56399999999996 30.25Q134.68399999999997 28.248 134.68399999999997 26.18Q134.68399999999997 23.98 135.51999999999998 22.264000000000003Q136.356 20.548000000000002 137.742 19.36Q139.128 18.172 140.79999999999998 17.556Q142.47199999999998 16.94 144.1 16.94Q145.332 16.94 146.476 17.270000000000003Q147.61999999999998 17.6 148.368 18.172Q149.11599999999999 18.744 149.11599999999999 19.448Q149.11599999999999 19.976 148.786 20.35Q148.456 20.724 147.83999999999997 20.724Q147.224 20.724 146.784 20.328000000000003Q146.344 19.932000000000002 146.07999999999998 19.492Q145.552 18.744 144.826 18.282Q144.1 17.82 142.69199999999998 17.82Q140.00799999999998 17.82 138.59999999999997 19.778Q137.19199999999998 21.736 137.19199999999998 24.904000000000003Q137.19199999999998 27.148 137.98399999999998 29.106Q138.77599999999998 31.064 140.426 32.274Q142.076 33.484 144.71599999999998 33.484Q145.85999999999999 33.484 147.07 33.153999999999996Q148.27999999999997 32.824 149.248 31.944Q149.38 31.856 149.534 32.032Q149.688 32.208 149.55599999999998 32.296Q148.05999999999997 33.660000000000004 146.51999999999998 34.254000000000005Q144.98 34.848 143.176 34.848Z"/><path d="M153.47199999999998 34.32Q153.38399999999996 34.32 153.38399999999996 34.056Q153.38399999999996 33.792 153.47199999999998 33.792Q155.27599999999998 33.792 155.82599999999996 33.22Q156.37599999999998 32.648 156.37599999999998 30.756V22.44Q156.37599999999998 20.856 156.06799999999998 20.130000000000003Q155.75999999999996 19.404000000000003 154.92399999999998 19.404000000000003Q154.52799999999996 19.404000000000003 154.02199999999996 19.558000000000003Q153.51599999999996 19.712000000000003 152.81199999999998 20.064Q152.63599999999997 20.108 152.52599999999995 19.866Q152.41599999999997 19.624000000000002 152.59199999999996 19.536L158.04799999999997 16.984Q158.17999999999998 16.94 158.22399999999996 16.94Q158.31199999999998 16.94 158.42199999999997 17.028Q158.53199999999998 17.116 158.53199999999998 17.248Q158.53199999999998 17.556 158.48799999999997 18.942Q158.44399999999996 20.328000000000003 158.44399999999996 22.396V30.756Q158.44399999999996 32.648 158.94999999999996 33.22Q159.45599999999996 33.792 161.30399999999997 33.792Q161.43599999999998 33.792 161.43599999999998 34.056Q161.43599999999998 34.32 161.30399999999997 34.32Q160.55599999999998 34.32 159.54399999999998 34.275999999999996Q158.53199999999998 34.232 157.38799999999998 34.232Q156.28799999999998 34.232 155.27599999999998 34.275999999999996Q154.26399999999998 34.32 153.47199999999998 34.32ZM157.03599999999997 11.616000000000003Q156.19999999999996 11.616000000000003 155.73799999999997 11.176000000000002Q155.27599999999998 10.736 155.27599999999998 9.944000000000003Q155.27599999999998 9.152000000000001 155.73799999999997 8.712000000000002Q156.19999999999996 8.272000000000002 157.03599999999997 8.272000000000002Q157.82799999999997 8.272000000000002 158.26799999999997 8.712000000000002Q158.70799999999997 9.152000000000001 158.70799999999997 9.944000000000003Q158.70799999999997 11.616000000000003 157.03599999999997 11.616000000000003Z"/><path d="M176.92399999999998 34.32Q176.79199999999997 34.32 176.79199999999997 34.056Q176.79199999999997 33.792 176.92399999999998 33.792Q178.72799999999995 33.792 179.25599999999997 33.22Q179.78399999999996 32.648 179.78399999999996 30.756V23.408Q179.78399999999996 20.724 178.77199999999996 19.492Q177.75999999999996 18.26 175.60399999999996 18.26Q173.93199999999996 18.26 172.19399999999996 19.36Q170.45599999999996 20.46 169.17999999999995 22.396L169.00399999999996 21.868000000000002Q171.07199999999997 19.14 172.96399999999997 17.952Q174.85599999999997 16.764000000000003 176.79199999999997 16.764000000000003Q179.21199999999996 16.764000000000003 180.53199999999998 18.062Q181.85199999999998 19.36 181.85199999999998 22.088V30.756Q181.85199999999998 32.648 182.35799999999998 33.22Q182.86399999999998 33.792 184.71199999999996 33.792Q184.84399999999997 33.792 184.84399999999997 34.056Q184.84399999999997 34.32 184.71199999999996 34.32Q183.96399999999997 34.32 182.95199999999997 34.275999999999996Q181.93999999999997 34.232 180.83999999999997 34.232Q179.73999999999995 34.232 178.70599999999996 34.275999999999996Q177.67199999999997 34.32 176.92399999999998 34.32ZM165.08799999999997 34.32Q164.95599999999996 34.32 164.95599999999996 34.056Q164.95599999999996 33.792 165.08799999999997 33.792Q166.89199999999997 33.792 167.41999999999996 33.22Q167.94799999999995 32.648 167.94799999999995 30.756V21.956000000000003Q167.94799999999995 20.46 167.59599999999995 19.778000000000002Q167.24399999999997 19.096000000000004 166.36399999999998 19.096000000000004Q165.92399999999998 19.096000000000004 165.30799999999996 19.272000000000002Q164.69199999999995 19.448 163.89999999999998 19.756Q163.72399999999996 19.8 163.61399999999998 19.58Q163.50399999999996 19.36 163.67999999999998 19.272000000000002L168.56399999999996 16.984Q168.65199999999996 16.94 168.78399999999996 16.94Q169.09199999999996 16.94 169.55399999999997 17.842Q170.01599999999996 18.744 170.01599999999996 20.46V30.756Q170.01599999999996 32.648 170.52199999999996 33.22Q171.02799999999996 33.792 172.87599999999998 33.792Q173.00799999999995 33.792 173.00799999999995 34.056Q173.00799999999995 34.32 172.87599999999998 34.32Q172.12799999999996 34.32 171.11599999999996 34.275999999999996Q170.10399999999996 34.232 169.00399999999996 34.232Q167.90399999999997 34.232 166.86999999999995 34.275999999999996Q165.83599999999996 34.32 165.08799999999997 34.32Z"/><path d="M193.59999999999997 46.64Q190.51999999999995 46.64 188.86999999999995 45.254000000000005Q187.21999999999997 43.868 187.21999999999997 41.844Q187.21999999999997 39.556 189.13399999999996 37.554Q191.04799999999997 35.552 194.30399999999997 33.704L194.78799999999995 34.276Q193.33599999999996 34.98 192.10399999999996 35.794Q190.87199999999996 36.608 190.12399999999997 37.730000000000004Q189.37599999999995 38.852000000000004 189.37599999999995 40.568Q189.37599999999995 41.976 190.01399999999995 43.054Q190.65199999999996 44.132 191.94999999999996 44.726Q193.24799999999996 45.32 195.22799999999995 45.32Q198.43999999999997 45.32 200.52999999999997 43.692Q202.61999999999995 42.064 202.61999999999995 39.248Q202.61999999999995 37.444 201.71799999999996 36.652Q200.81599999999997 35.86 199.23199999999997 35.662Q197.64799999999997 35.464 195.53599999999997 35.464Q193.51199999999997 35.464 191.86199999999997 35.31Q190.21199999999996 35.156 189.24399999999997 34.495999999999995Q188.27599999999995 33.836 188.27599999999995 32.384Q188.27599999999995 30.888 189.19999999999996 29.854Q190.12399999999997 28.82 191.70799999999997 27.456L192.19199999999995 27.896Q191.09199999999996 28.82 190.65199999999996 29.546Q190.21199999999996 30.272 190.21199999999996 31.064Q190.21199999999996 31.944 190.80599999999995 32.472Q191.39999999999995 33.0 192.85199999999998 33.242000000000004Q194.30399999999997 33.484 196.85599999999997 33.484Q197.82399999999996 33.484 199.09999999999997 33.528000000000006Q200.37599999999995 33.572 201.60799999999995 33.92400000000001Q202.83999999999997 34.276 203.65399999999997 35.2Q204.46799999999996 36.124 204.46799999999996 37.884Q204.46799999999996 39.688 203.56599999999997 41.272000000000006Q202.66399999999996 42.856 201.12399999999997 44.066Q199.58399999999995 45.275999999999996 197.62599999999995 45.958Q195.66799999999995 46.64 193.59999999999997 46.64ZM195.00799999999995 28.468Q192.89599999999996 28.468 191.42199999999997 27.698Q189.94799999999995 26.928 189.15599999999995 25.630000000000003Q188.36399999999995 24.332 188.36399999999995 22.792Q188.36399999999995 21.208 189.17799999999994 19.91Q189.99199999999996 18.612000000000002 191.53199999999998 17.82Q193.07199999999997 17.028000000000002 195.22799999999995 17.028000000000002Q197.64799999999997 17.028000000000002 199.07799999999997 17.908Q200.50799999999995 18.788000000000004 201.12399999999997 20.108000000000004Q201.73999999999995 21.428 201.73999999999995 22.704Q201.73999999999995 24.156 200.96999999999997 25.476Q200.19999999999996 26.796 198.70399999999995 27.631999999999998Q197.20799999999997 28.468 195.00799999999995 28.468ZM195.79999999999995 27.852Q197.33999999999997 27.852 198.35199999999998 26.862000000000002Q199.36399999999995 25.872 199.36399999999995 23.584000000000003Q199.36399999999995 21.736 198.68199999999996 20.416000000000004Q197.99999999999997 19.096000000000004 196.85599999999997 18.370000000000005Q195.71199999999996 17.644000000000002 194.25999999999996 17.644000000000002Q192.71999999999997 17.644000000000002 191.70799999999997 18.590000000000003Q190.69599999999997 19.536 190.69599999999997 21.824Q190.69599999999997 23.936 191.48799999999997 25.278Q192.27999999999997 26.62 193.44599999999997 27.236Q194.61199999999997 27.852 195.79999999999995 27.852ZM198.96799999999996 20.284V18.788000000000004Q200.33199999999997 17.996000000000002 201.60799999999995 17.490000000000002Q202.88399999999996 16.984 204.42399999999995 16.984Q204.51199999999997 16.984 204.57799999999997 17.292Q204.64399999999995 17.6 204.64399999999995 17.908Q204.64399999999995 18.348 204.53399999999993 18.854Q204.42399999999995 19.36 204.24799999999996 19.272000000000002Q203.93999999999997 19.14 203.19199999999995 18.898Q202.44399999999996 18.656 201.38799999999995 18.656Q200.81599999999997 18.656 200.33199999999997 18.744Q199.84799999999996 18.832 199.36399999999995 18.964Z"/><path d="M228.62399999999997 34.496Q227.39199999999994 34.496 225.58799999999997 34.364000000000004Q223.78399999999996 34.232 222.24399999999994 34.232Q220.83599999999996 34.232 219.51599999999996 34.275999999999996Q218.19599999999994 34.32 217.13999999999996 34.32Q217.05199999999996 34.32 217.05199999999996 34.056Q217.05199999999996 33.792 217.13999999999996 33.792Q218.81199999999995 33.792 219.66999999999996 33.572Q220.52799999999996 33.352000000000004 220.81399999999996 32.69200000000001Q221.09999999999997 32.032000000000004 221.09999999999997 30.756V10.384Q221.09999999999997 9.108 220.81399999999996 8.47Q220.52799999999996 7.832000000000001 219.69199999999995 7.590000000000002Q218.85599999999997 7.3480000000000025 217.18399999999994 7.3480000000000025Q217.09599999999995 7.3480000000000025 217.09599999999995 7.084000000000001Q217.09599999999995 6.82 217.18399999999994 6.82Q218.23999999999995 6.82 219.53799999999995 6.886000000000001Q220.83599999999996 6.952000000000002 222.24399999999994 6.952000000000002Q223.65199999999996 6.952000000000002 225.25799999999995 6.842000000000002Q226.86399999999995 6.732000000000003 228.00799999999995 6.732000000000003Q232.71599999999995 6.732000000000003 236.23599999999993 8.492000000000003Q239.75599999999994 10.252000000000002 241.71399999999994 13.288000000000002Q243.67199999999997 16.324 243.67199999999997 20.108Q243.67199999999997 23.408 242.48399999999998 26.07Q241.29599999999996 28.732 239.20599999999996 30.602Q237.11599999999996 32.472 234.38799999999998 33.484Q231.65999999999997 34.496 228.62399999999997 34.496ZM228.18399999999997 33.924Q231.87999999999994 33.924 234.71799999999996 32.45Q237.55599999999995 30.976 239.18399999999997 28.094Q240.81199999999995 25.212000000000003 240.81199999999995 21.076Q240.81199999999995 17.204 239.29399999999995 14.102Q237.77599999999995 11.0 235.00399999999996 9.152000000000001Q232.23199999999994 7.304000000000002 228.40399999999994 7.304000000000002Q225.71999999999994 7.304000000000002 224.57599999999996 7.854000000000003Q223.43199999999996 8.404000000000003 223.43199999999996 10.472000000000001V30.272Q223.43199999999996 32.164 224.33399999999995 33.044Q225.23599999999996 33.924 228.18399999999997 33.924Z"/><path d="M259.59999999999997 34.584Q259.4239999999999 34.672 259.24799999999993 34.672Q258.71999999999997 34.672 258.28 33.748Q257.8399999999999 32.824 257.8399999999999 31.064V22.572000000000003Q257.8399999999999 19.844 256.98199999999997 18.788000000000004Q256.12399999999997 17.732000000000003 254.84799999999996 17.732000000000003Q253.74799999999993 17.732000000000003 253.02199999999993 18.238Q252.29599999999994 18.744 251.92199999999994 19.492Q251.54799999999994 20.240000000000002 251.37199999999996 20.9Q251.28399999999993 21.340000000000003 251.06399999999994 21.934Q250.84399999999994 22.528 249.96399999999994 22.528Q249.30399999999995 22.528 248.97399999999993 22.131999999999998Q248.64399999999995 21.736 248.64399999999995 21.296Q248.64399999999995 20.548000000000002 249.43599999999995 19.778000000000002Q250.22799999999995 19.008000000000003 251.43799999999993 18.348000000000003Q252.64799999999994 17.688000000000002 253.96799999999996 17.292Q255.28799999999995 16.896 256.3879999999999 16.896Q258.19199999999995 16.896 259.0279999999999 18.062Q259.8639999999999 19.228 259.8639999999999 21.252000000000002V29.568Q259.8639999999999 31.152 260.23799999999994 31.878Q260.61199999999997 32.604 261.53599999999994 32.604Q262.37199999999996 32.604 263.95599999999996 31.944Q264.17599999999993 31.856 264.2639999999999 32.098Q264.3519999999999 32.34 264.13199999999995 32.428ZM251.81199999999995 34.628Q250.18399999999994 34.628 249.32599999999994 33.726Q248.46799999999993 32.824 248.46799999999993 31.636Q248.46799999999993 30.888 248.84199999999993 30.184Q249.21599999999995 29.48 250.16199999999995 28.82Q251.10799999999995 28.16 252.77999999999994 27.544L258.28 25.476L258.36799999999994 26.048000000000002L253.17599999999996 28.028Q252.25199999999995 28.380000000000003 251.76799999999994 28.798000000000002Q251.28399999999993 29.216 251.10799999999995 29.678Q250.93199999999996 30.14 250.93199999999996 30.624000000000002Q250.93199999999996 31.592 251.56999999999994 32.384Q252.20799999999994 33.176 253.43999999999994 33.176Q253.92399999999995 33.176 254.45199999999994 33.022000000000006Q254.97999999999993 32.868 255.72799999999995 32.428L258.67599999999993 30.712L258.76399999999995 31.240000000000002L255.46399999999994 33.308Q254.36399999999995 34.012 253.52799999999996 34.32Q252.69199999999995 34.628 251.81199999999995 34.628Z"/><path d="M266.77199999999993 34.32Q266.68399999999997 34.32 266.68399999999997 34.056Q266.68399999999997 33.792 266.77199999999993 33.792Q268.57599999999996 33.792 269.126 33.22Q269.67599999999993 32.648 269.67599999999993 30.756V22.44Q269.67599999999993 20.856 269.36799999999994 20.130000000000003Q269.05999999999995 19.404000000000003 268.22399999999993 19.404000000000003Q267.828 19.404000000000003 267.322 19.558000000000003Q266.816 19.712000000000003 266.11199999999997 20.064Q265.936 20.108 265.82599999999996 19.866Q265.71599999999995 19.624000000000002 265.89199999999994 19.536L271.34799999999996 16.984Q271.47999999999996 16.94 271.52399999999994 16.94Q271.61199999999997 16.94 271.722 17.028Q271.83199999999994 17.116 271.83199999999994 17.248Q271.83199999999994 17.556 271.78799999999995 18.942Q271.74399999999997 20.328000000000003 271.74399999999997 22.396V30.756Q271.74399999999997 32.648 272.25 33.22Q272.756 33.792 274.6039999999999 33.792Q274.73599999999993 33.792 274.73599999999993 34.056Q274.73599999999993 34.32 274.6039999999999 34.32Q273.85599999999994 34.32 272.84399999999994 34.275999999999996Q271.83199999999994 34.232 270.68799999999993 34.232Q269.58799999999997 34.232 268.57599999999996 34.275999999999996Q267.56399999999996 34.32 266.77199999999993 34.32ZM270.33599999999996 11.616000000000003Q269.49999999999994 11.616000000000003 269.03799999999995 11.176000000000002Q268.57599999999996 10.736 268.57599999999996 9.944000000000003Q268.57599999999996 9.152000000000001 269.03799999999995 8.712000000000002Q269.49999999999994 8.272000000000002 270.33599999999996 8.272000000000002Q271.12799999999993 8.272000000000002 271.5679999999999 8.712000000000002Q272.0079999999999 9.152000000000001 272.0079999999999 9.944000000000003Q272.0079999999999 11.616000000000003 270.33599999999996 11.616000000000003Z"/><path d="M280.58799999999997 20.152Q280.58799999999997 21.340000000000003 281.18199999999996 22.154000000000003Q281.77599999999995 22.968000000000004 282.722 23.518Q283.66799999999995 24.068 284.67999999999995 24.596Q285.82399999999996 25.124000000000002 286.83599999999996 25.762Q287.84799999999996 26.4 288.5079999999999 27.28Q289.16799999999995 28.16 289.16799999999995 29.568Q289.16799999999995 30.976 288.46399999999994 32.164Q287.76 33.352000000000004 286.374 34.078Q284.988 34.804 283.008 34.804Q281.952 34.804 280.94 34.518Q279.928 34.232 278.87199999999996 33.44Q278.784 33.352000000000004 278.69599999999997 33.22Q278.60799999999995 33.088 278.60799999999995 32.912L278.52 29.744Q278.52 29.612000000000002 278.76199999999994 29.590000000000003Q279.00399999999996 29.568 279.048 29.7Q279.61999999999995 31.196 280.39 32.142Q281.15999999999997 33.088 282.128 33.528000000000006Q283.096 33.968 284.284 33.968Q285.82399999999996 33.968 286.638 33.242000000000004Q287.452 32.516 287.364 31.064Q287.32 29.788 286.70399999999995 28.996000000000002Q286.08799999999997 28.204 285.164 27.676000000000002Q284.23999999999995 27.148 283.22799999999995 26.664Q282.128 26.136000000000003 281.138 25.542Q280.14799999999997 24.948 279.51 24.024Q278.87199999999996 23.1 278.87199999999996 21.648000000000003Q278.87199999999996 19.976 279.75199999999995 18.898Q280.63199999999995 17.82 281.97399999999993 17.292Q283.316 16.764000000000003 284.768 16.764000000000003Q285.56 16.764000000000003 286.352 16.918000000000003Q287.14399999999995 17.072000000000003 287.892 17.424Q288.28799999999995 17.6 288.28799999999995 17.908Q288.28799999999995 18.568 288.24399999999997 19.316000000000003Q288.2 20.064 288.2 20.944000000000003Q288.2 21.032000000000004 287.936 21.032000000000004Q287.67199999999997 21.032000000000004 287.67199999999997 20.944000000000003Q287.67199999999997 19.932000000000002 286.94599999999997 19.184Q286.21999999999997 18.436 285.186 18.04Q284.152 17.644000000000002 283.14 17.644000000000002Q281.952 17.644000000000002 281.27 18.26Q280.58799999999997 18.876 280.58799999999997 20.152Z"/><path d="M310.11199999999997 17.336000000000002Q310.24399999999997 17.336000000000002 310.24399999999997 17.6Q310.24399999999997 17.864 310.11199999999997 17.864Q309.09999999999997 17.864 308.352 18.480000000000004Q307.604 19.096000000000004 306.94399999999996 20.9L301.444 35.552Q299.86 39.775999999999996 298.408 42.217999999999996Q296.956 44.66 295.394 45.672Q293.832 46.684 291.852 46.684Q291.01599999999996 46.684 290.378 46.288Q289.74 45.891999999999996 289.74 45.056Q289.74 44.528 290.11400000000003 44.242000000000004Q290.488 43.956 290.928 43.956Q291.808 43.956 292.27 44.198Q292.73199999999997 44.44 293.15 44.704Q293.568 44.968 294.272 44.968Q295.372 44.968 296.384 43.956Q297.396 42.944 298.562 40.524Q299.728 38.104 301.312 33.924V34.892L294.49199999999996 20.988Q293.524 19.052 292.974 18.458Q292.424 17.864 291.58799999999997 17.864Q291.5 17.864 291.5 17.6Q291.5 17.336000000000002 291.58799999999997 17.336000000000002Q292.248 17.336000000000002 292.952 17.380000000000003Q293.656 17.424 294.316 17.424Q295.724 17.424 296.802 17.380000000000003Q297.88 17.336000000000002 298.76 17.336000000000002Q298.848 17.336000000000002 298.848 17.6Q298.848 17.864 298.76 17.864Q297.396 17.864 296.582 18.216Q295.768 18.568 296.296 19.580000000000002L302.456 32.208L301.57599999999996 33.836L306.02 21.076Q306.68 19.14 305.976 18.502000000000002Q305.272 17.864 302.808 17.864Q302.71999999999997 17.864 302.71999999999997 17.6Q302.71999999999997 17.336000000000002 302.808 17.336000000000002Q303.864 17.336000000000002 304.80999999999995 17.380000000000003Q305.756 17.424 307.252 17.424Q308.176 17.424 308.748 17.380000000000003Q309.32 17.336000000000002 310.11199999999997 17.336000000000002Z"/></g>
</svg>